<svg xmlns="http://www.w3.org/2000/svg" width="200" height="200" viewBox="0 0 0 0 200 0 200"><path fill="#FFF" d="M0 0H200V200H0z"/><path d="M34.825 94.094c0-2.09 1.69-3.78 3.78-3.78s3.78 1.69 3.78 3.78v31.49c0 2.09-1.69 3.78-3.78 3.78s-3.78-1.69-3.78-3.78v-31.49zm14.42-8.5c0-2.09 1.69-3.78 3.78-3.78s3.78 1.69 3.78 3.78v48.5c0 2.09-1.69 3.78-3.78 3.78s-3.78-1.69-3.78-3.78v-48.5zm14.48-9.42c0-2.08 1.67-3.76 3.72-3.76 2.06 0 3.72 1.68 3.72 3.76v67.34c0 2.08-1.67 3.76-3.72 3.76-2.06 0-3.72-1.68-3.72-3.76v-67.34zm14.36-10.12c0-2.09 1.69-3.78 3.78-3.78s3.78 1.69 3.78 3.78v87.57c0 2.09-1.69 3.78-3.78 3.78s-3.78-1.69-3.78-3.78v-87.57z"/><path d="M143.993 45.25q0 6.25-6.25 6.25h-31.25v106.25q0 6.25-6.25 6.25t-6.25-6.25V51.5h-31.25q-6.25 0-6.25-6.25t6.25-6.25h75q6.25 0 6.25 6.25z"/><path d="M118.139 70.279c-2.08 0-3.76-1.67-3.76-3.72 0-2.06 1.68-3.72 3.76-3.72h14.463c2.08 0 3.76 1.67 3.76 3.72 0 2.06-1.68 3.72-3.76 3.72h-14.463zm0 14.456c-2.08 0-3.76-1.67-3.76-3.72 0-2.06 1.68-3.72 3.76-3.72h28.984c2.08 0 3.76 1.67 3.76 3.72 0 2.06-1.68 3.72-3.76 3.72h-28.984zm.001 14.457c-2.08 0-3.76-1.67-3.76-3.72 0-2.06 1.68-3.72 3.76-3.72h43.275c2.08 0 3.76 1.67 3.76 3.72 0 2.06-1.68 3.72-3.76 3.72H118.14zm0 14.457c-2.08 0-3.76-1.67-3.76-3.72 0-2.06 1.68-3.72 3.76-3.72h43.275c2.08 0 3.76 1.67 3.76 3.72 0 2.06-1.68 3.72-3.76 3.72H118.14zm0 14.457c-2.08 0-3.76-1.67-3.76-3.72 0-2.06 1.68-3.72 3.76-3.72h43.275c2.08 0 3.76 1.67 3.76 3.72 0 2.06-1.68 3.72-3.76 3.72H118.14zm0 14.457c-2.08 0-3.76-1.67-3.76-3.72 0-2.06 1.68-3.72 3.76-3.72h28.983c2.08 0 3.76 1.67 3.76 3.72 0 2.06-1.68 3.72-3.76 3.72H118.14zm0 14.457c-2.08 0-3.76-1.67-3.76-3.72 0-2.06 1.68-3.72 3.76-3.72h14.462c2.08 0 3.76 1.67 3.76 3.72 0 2.06-1.68 3.72-3.76 3.72H118.14z"/></svg>